<svg width="0" height="0" class="hidden">
  <symbol xmlns="http://www.w3.org/2000/svg" viewBox="0 0 62 50" id="camera-icon">
    <g clip-path="url(#clip0_999_132)">
      <path d="M30.897 50.036C22.766 50.036 14.635 50.036 6.505 50.036C6.478 50.036 6.447 50.037 6.415 50.037C2.872 50.037 0 47.165 0 43.622C0 43.59 0 43.559 0.001 43.527V43.532C0.0723333 34.0967 0.0723333 24.6554 0.001 15.208C0.001 15.197 0.001 15.185 0.001 15.172C0.001 11.619 2.881 8.73903 6.434 8.73903C22.767 8.73903 39.082 8.73903 55.415 8.73903C55.497 8.73503 55.593 8.73303 55.69 8.73303C59.085 8.73303 61.837 11.485 61.837 14.88C61.837 14.983 61.834 15.085 61.829 15.186L61.83 15.172V43.532C61.837 43.641 61.841 43.768 61.841 43.897C61.841 47.292 59.089 50.044 55.694 50.044C55.59 50.044 55.486 50.041 55.383 50.036L55.398 50.037L30.897 50.036ZM30.897 43.871C30.939 43.871 30.99 43.872 31.04 43.872C39.014 43.872 45.479 37.407 45.479 29.433C45.479 21.459 39.014 14.994 31.04 14.994C23.078 14.994 16.622 21.438 16.601 29.394V29.396C16.65 37.281 22.988 43.669 30.849 43.799H30.861L30.897 43.871ZM12.384 19.049C12.345 17.928 11.436 17.031 10.313 17.012H10.311C9.176 17.012 8.256 17.932 8.256 19.067C8.256 20.202 9.176 21.122 10.311 21.122C11.448 21.102 12.364 20.186 12.384 19.051V19.049Z"></path>
      <path d="M42.28 6.165H19.532C19.889 4.735 20.211 3.359 20.568 1.983C20.646 0.853003 21.582 -0.0339966 22.725 -0.0339966C22.859 -0.0339966 22.991 -0.0219966 23.118 0.00200342L23.105 3.41982e-06H38.938C39.008 -0.00799658 39.089 -0.0129966 39.17 -0.0129966C40.219 -0.0129966 41.085 0.766003 41.224 1.776L41.225 1.787C41.565 3.074 41.886 4.36 42.208 5.647C42.244 5.808 42.244 5.969 42.279 6.165H42.28Z"></path>
      <path d="M30.861 43.799C22.902 43.778 16.459 37.322 16.459 29.36C16.459 21.386 22.924 14.921 30.898 14.921C38.872 14.921 45.337 21.386 45.337 29.36C45.337 29.41 45.337 29.46 45.336 29.511V29.503C45.215 37.412 38.785 43.78 30.863 43.799H30.861ZM30.861 39.671C36.556 39.671 41.172 35.055 41.172 29.36C41.172 23.665 36.556 19.049 30.861 19.049C25.179 19.049 20.57 23.645 20.55 29.322V29.324C20.55 29.345 20.55 29.371 20.55 29.396C20.55 35.071 25.15 39.671 30.825 39.671C30.863 39.671 30.901 39.671 30.938 39.67H30.932L30.861 39.671Z"></path>
      <path d="M12.384 19.049C12.365 20.174 11.468 21.083 10.35 21.122H10.346C9.21102 21.122 8.29102 20.202 8.29102 19.067C8.29102 17.932 9.21102 17.012 10.346 17.012C11.455 17.05 12.345 17.94 12.383 19.046V19.05L12.384 19.049Z"></path>
      <path d="M31.129 21.14C35.507 21.284 39.019 24.801 39.152 29.169V29.182C39.154 29.22 39.156 29.265 39.156 29.311C39.156 30.443 38.272 31.368 37.156 31.434H37.15C37.145 31.434 37.138 31.434 37.132 31.434C35.987 31.434 35.059 30.506 35.059 29.361C35.02 27.109 33.215 25.292 30.972 25.233H30.966C30.949 25.233 30.93 25.234 30.91 25.234C29.785 25.234 28.873 24.322 28.873 23.197C28.873 23.165 28.874 23.134 28.875 23.102V23.106C28.929 22.005 29.836 21.132 30.946 21.132C31.01 21.132 31.073 21.135 31.135 21.14L31.127 21.139L31.129 21.14Z"></path>
    </g>
    <defs>
      <clipPath id="clip0_999_132">
        <rect width="62" height="50"></rect>
      </clipPath>
    </defs>
  </symbol>
  <symbol xmlns="http://www.w3.org/2000/svg" viewBox="0 0 32 32" id="facebook-icon">
    <path d="M13.04 29.333L13 17.666H8V12.666H13V9.33302C13 4.84002 15.787 2.66602 19.8 2.66602C21.72 2.66602 23.373 2.79902 23.853 2.86602V7.57302H21.066C18.893 7.57302 18.466 8.61302 18.466 10.133V12.666H24.666L22.999 17.666H18.466V29.333H13.039H13.04Z"></path>
  </symbol>
  <symbol xmlns="http://www.w3.org/2000/svg" viewBox="0 0 66 50" id="image-icon">
    <g clip-path="url(#clip0_6_146)">
      <path d="M-1.41598e-05 48.5029V1.49692C0.361986 0.60892 1.21999 -0.00608008 2.21999 -0.00608008C2.27999 -0.00608008 2.33999 -0.00408008 2.39899 0.000919922H2.39099H63.727C63.784 -0.00408008 63.851 -0.00708008 63.918 -0.00708008C65.158 -0.00708008 66.163 0.99792 66.163 2.23792C66.163 2.30492 66.16 2.37192 66.154 2.43692L66.155 2.42892C66.155 11.9029 66.155 21.3779 66.155 30.8339C66.155 36.4749 66.155 42.1149 66.155 47.7559C66.163 47.8219 66.167 47.8989 66.167 47.9769C66.167 49.0759 65.276 49.9669 64.177 49.9669C64.147 49.9669 64.117 49.9659 64.087 49.9649H64.091H2.64499C2.54299 49.9789 2.42599 49.9879 2.30599 49.9879C1.28699 49.9879 0.407986 49.3869 0.00498584 48.5209L-0.00201416 48.5049L-1.41598e-05 48.5029ZM62.066 4.14392H4.12499V32.0919L4.76399 31.6539L15.991 23.6039C16.388 23.2059 16.936 22.9599 17.543 22.9599C18.15 22.9599 18.698 23.2059 19.095 23.6039L30.888 32.0559C32.713 33.3699 34.539 34.6849 36.364 35.9629C36.696 36.2189 37.117 36.3739 37.575 36.3739C38.476 36.3739 39.237 35.7759 39.482 34.9549L39.486 34.9409C39.537 34.7709 39.566 34.5759 39.566 34.3729C39.566 33.5999 39.141 32.9259 38.511 32.5729L38.501 32.5679C35.9577 30.7793 33.469 28.9843 31.035 27.1829L30.469 26.7629L30.798 26.5069L40.966 19.2049C41.363 18.8069 41.911 18.5609 42.518 18.5609C43.125 18.5609 43.673 18.8069 44.07 19.2049L61.412 31.6549L62.051 32.0749L62.066 4.14392Z"></path>
      <path d="M26.962 9.34597C29.987 9.34597 32.438 11.798 32.438 14.822C32.484 15.09 32.511 15.399 32.511 15.713C32.511 18.738 30.059 21.189 27.035 21.189C24.011 21.189 21.559 18.737 21.559 15.713C21.559 15.398 21.586 15.09 21.637 14.789L21.632 14.821C21.632 14.82 21.632 14.82 21.632 14.819C21.632 11.846 24.001 9.42597 26.955 9.34497H26.963L26.962 9.34597Z"></path>
    </g>
    <defs>
      <clipPath id="clip0_6_146">
        <rect width="66" height="50"></rect>
      </clipPath>
    </defs>
  </symbol>
  <symbol xmlns="http://www.w3.org/2000/svg" viewBox="0 0 50 50" id="logo-icon">
    <path d="M20.4506 5.25918C19.0919 5.69691 17.9456 6.47652 17.6601 7.15634L17.5398 7.4419L15.6561 7.43301L15.4116 6.93006C15.2253 6.54668 15.063 6.3708 14.7263 6.18701L14.2864 5.94591H11.1062C6.93498 5.94591 6.40895 6.15341 6.40895 7.80355V8.26796L5.69955 8.61478C3.08441 9.8924 1.03538 12.416 0.225789 15.3546L0.000346207 16.1748V26.2584C0.000346207 37.2698 -0.0327188 36.5584 0.547422 38.1166C1.84798 41.6086 4.86291 44.1352 8.54916 44.8258C9.78859 45.0581 40.2114 45.0581 41.4508 44.8258C45.1371 44.1362 48.152 41.6096 49.4526 38.1166C50.0327 36.5584 49.9997 37.2698 49.9997 26.2584V16.1748L49.7832 15.4031C48.649 11.3647 45.7433 8.61182 41.6342 7.67905C41.02 7.53972 40.2134 7.50514 36.6765 7.46858L32.4532 7.42412L32.3369 7.14745C32.0504 6.46565 30.8209 5.64553 29.4663 5.23349C28.3992 4.9084 21.4756 4.92816 20.4506 5.25918ZM40.0601 10.8222C43.053 11.1256 45.3856 12.9526 46.3976 15.7874L46.6731 16.5591L46.7012 25.871C46.7332 36.5189 46.7653 36.0218 45.9236 37.7342C44.9758 39.662 43.064 41.1205 40.9288 41.5453C39.7856 41.7726 10.2114 41.7726 9.07118 41.5453C6.91594 41.1145 5.0112 39.6284 4.00923 37.5949C3.24473 36.0426 3.26677 36.4072 3.29883 25.871L3.32689 16.5591L3.63149 15.7163C4.60841 13.0168 6.9961 11.1167 9.77356 10.8291C10.9589 10.7066 38.8517 10.6997 40.0601 10.8212V10.8222ZM9.51706 11.8884C6.37889 12.3419 4.35391 14.8942 4.35391 18.398V19.6954H11.0661L11.2915 19.2369C12.2845 17.2123 14.2844 15.0167 16.4357 13.5869C17.2402 13.0524 19.3614 11.9763 19.6109 11.9763C19.669 11.9763 19.7161 11.9328 19.7161 11.8795C19.7161 11.7609 10.3457 11.7678 9.51706 11.8874V11.8884ZM30.2839 11.8548C30.2839 11.9002 30.4492 11.9951 30.6506 12.0652C33.7206 13.1294 37.462 16.4702 38.7385 19.2863L38.9249 19.6964H45.6471V18.399C45.6471 15.1284 44.1341 12.9842 41.1462 12.0168C40.5581 11.8261 30.2849 11.674 30.2849 11.8558L30.2839 11.8548ZM24.0707 12.5178C12.6663 13.6156 7.13237 25.9748 14.0931 34.7976C21.7892 44.5512 37.8768 39.7015 38.8858 27.3236C39.5611 19.0343 32.2528 11.7313 24.0707 12.5178ZM26.6638 15.9455C33.2327 16.8753 37.3277 23.963 34.8278 30.0774C31.9482 37.1216 22.708 38.9279 17.4136 33.4804C10.3908 26.2544 16.5819 14.5187 26.6638 15.9455ZM23.8723 17.5719C17.9617 18.395 14.553 24.3474 16.8885 29.7701C19.5698 35.9942 28.5605 36.7659 32.376 31.1001C36.5512 24.9007 31.2949 16.5394 23.8723 17.5719ZM27.7168 18.9098C28.8581 19.2596 29.7118 20.0768 29.7318 20.8366C29.7779 22.5886 26.2289 22.5332 25.0416 20.7635C24.1388 19.4187 25.747 18.3051 27.7168 18.9098ZM22.701 32.2552C23.7821 32.4805 25.3923 33.4557 25.3923 33.8846C25.3923 34.8865 21.7581 34.2393 20.697 33.0486C19.9636 32.2246 20.8564 31.8708 22.701 32.2552ZM41.9128 35.9991C39.8938 36.6167 40.2846 39.3863 42.3897 39.3794C44.5309 39.3725 44.6902 36.2629 42.564 35.9734C42.3486 35.9438 42.056 35.9556 41.9128 36.0001V35.9991Z"></path>
  </symbol>
  <symbol xmlns="http://www.w3.org/2000/svg" viewBox="0 0 32 50" id="microphone-icon">
    <g clip-path="url(#clip0_6_107)">
      <path d="M4.371 50V47.102H14.587V40.93C6.391 40.113 0.038 33.272 0 24.938V24.934H2.881C2.895 29.331 5.074 33.216 8.407 35.581L8.448 35.608C10.52 37.153 13.131 38.082 15.959 38.082C16.196 38.082 16.432 38.075 16.667 38.063L16.634 38.064C23.627 37.725 29.177 32.004 29.24 24.973V24.967H32.138C32.138 25 32.138 25.039 32.138 25.078C32.138 29.228 30.531 33.003 27.905 35.815L27.913 35.806C25.306 38.656 21.696 40.55 17.645 40.926L17.582 40.931V47.021H27.831V49.968L4.371 50Z"></path>
      <path d="M26.326 11.706V16.11H19.04V19.024H26.309V23.412H19.056V26.359H26.194C25.475 31.369 21.212 35.177 16.06 35.177C10.908 35.177 6.64496 31.369 5.93196 26.414L5.92596 26.359H13.097V23.461H5.86096V19.057H13.097V16.126H5.86096V11.755H13.097V8.792H5.95896C6.72396 3.832 10.963 0.0780029 16.078 0.0780029C21.187 0.0780029 25.422 3.823 26.187 8.718L26.194 8.776H19.039V11.707L26.326 11.706Z"></path>
    </g>
    <defs>
      <clipPath id="clip0_6_107">
        <rect width="32" height="50"></rect>
      </clipPath>
    </defs>
  </symbol>
  <symbol xmlns="http://www.w3.org/2000/svg" viewBox="0 0 60 50" id="video-icon">
    <g clip-path="url(#clip0_999_127)">
      <path d="M59.8431 1.30702V48.781C59.4651 49.535 58.6981 50.043 57.8121 50.043C57.7481 50.043 57.6851 50.04 57.6221 50.035L57.6301 50.036H2.19406C2.12806 50.044 2.05106 50.048 1.97306 50.048C0.876061 50.048 -0.0129395 49.159 -0.0129395 48.062C-0.0129395 47.984 -0.00893945 47.907 6.05462e-05 47.831L-0.000939454 47.84C-0.000939454 32.6134 -0.000939454 17.387 -0.000939454 2.16102C-0.00593945 2.10602 -0.00993945 2.04202 -0.00993945 1.97702C-0.00993945 0.880023 0.87906 -0.00897705 1.97606 -0.00897705C2.04706 -0.00897705 2.11606 -0.00497705 2.18506 0.00202295L2.17606 0.00102295C20.6661 0.00102295 39.1447 0.00102295 57.6121 0.00102295C57.6871 -0.00797705 57.7741 -0.0139771 57.8631 -0.0139771C58.7501 -0.0139771 59.5111 0.525023 59.8371 1.29302L59.8421 1.30702H59.8431ZM22.5441 24.983V30.575C22.5451 30.941 22.5961 31.295 22.6901 31.631L22.6831 31.603C23.0381 32.503 23.9011 33.128 24.9091 33.128C25.4191 33.128 25.8921 32.968 26.2801 32.695L26.2721 32.7C29.6001 30.784 32.8921 28.85 36.1851 26.899C36.8651 26.531 37.3181 25.823 37.3181 25.009C37.3181 24.195 36.8641 23.487 36.1961 23.124L36.1851 23.118C32.8921 21.097 29.5131 19.163 26.1331 17.212C25.7801 16.992 25.3511 16.861 24.8921 16.861C23.5831 16.861 22.5231 17.922 22.5231 19.23C22.5231 19.28 22.5251 19.33 22.5281 19.379V19.372C22.6501 21.236 22.5451 23.118 22.5451 24.982L22.5441 24.983ZM9.44306 6.55102V3.57202H3.57206V6.55102H9.44306ZM3.48406 46.376H9.44206V43.449H3.48406V46.376ZM18.8331 3.57102H13.0661V6.53302H18.8331V3.57102ZM22.4561 3.57102V6.53302H28.2401V3.48402L22.4561 3.57102ZM37.6131 6.55102V3.57202H31.8461V6.53402L37.6131 6.55102ZM47.0381 3.57102H41.2191V6.53302H47.0381V3.57102ZM37.6311 46.394V43.554H31.8471V46.481L37.6311 46.394ZM18.8151 46.394V43.554H13.0481V46.481L18.8151 46.394ZM28.2401 46.394V43.554H22.4731V46.498L28.2401 46.394ZM47.0381 43.449H41.2191V46.376H47.0381V43.449ZM56.2891 6.55102V3.48502H50.6271V6.55102H56.2891ZM56.2891 43.449H50.6271V46.393H56.3061L56.2891 43.449Z"></path>
    </g>
    <defs>
      <clipPath id="clip0_999_127">
        <rect width="60" height="50"></rect>
      </clipPath>
    </defs>
  </symbol>
</svg>